# Blender v2.93.1 OBJ File: '11111111.blend'
# www.blender.org
mtllib wood floor 1.mtl
o Cube_Cube.003
v -1.540470 -0.058029 1.779016
v -1.540470 0.058029 1.779016
v -1.540470 -0.058029 -1.779016
v -1.540470 0.058029 -1.779016
v -1.159530 -0.058029 1.779016
v -1.159530 0.058029 1.779016
v -1.159530 -0.058029 -1.779016
v -1.159530 0.058029 -1.779016
v -1.090470 -0.058029 -1.779016
v -1.090470 -0.058029 1.779016
v -1.090470 0.058029 1.779016
v -1.090470 0.058029 -1.779016
v -0.709530 -0.058029 -1.779016
v -0.709530 0.058029 -1.779016
v -0.709530 -0.058029 1.779016
v -0.709530 0.058029 1.779016
v -0.640470 -0.058029 -1.779016
v -0.640470 -0.058029 1.779016
v -0.640470 0.058029 1.779016
v -0.640470 0.058029 -1.779016
v -0.259530 -0.058029 -1.779016
v -0.259530 0.058029 -1.779016
v -0.259530 -0.058029 1.779016
v -0.259530 0.058029 1.779016
v -0.190470 -0.058029 -1.779016
v -0.190470 -0.058029 1.779016
v -0.190470 0.058029 1.779016
v -0.190470 0.058029 -1.779016
v 0.190470 -0.058029 -1.779016
v 0.190470 0.058029 -1.779016
v 0.190470 -0.058029 1.779016
v 0.190470 0.058029 1.779016
v 0.259530 -0.058029 -1.779016
v 0.259530 -0.058029 1.779016
v 0.259530 0.058029 1.779016
v 0.259530 0.058029 -1.779016
v 0.640470 -0.058029 -1.779016
v 0.640470 0.058029 -1.779016
v 0.640470 -0.058029 1.779016
v 0.640470 0.058029 1.779016
v 0.709530 -0.058029 -1.779016
v 0.709530 -0.058029 1.779016
v 0.709530 0.058029 1.779016
v 0.709530 0.058029 -1.779016
v 1.090470 -0.058029 -1.779016
v 1.090470 0.058029 -1.779016
v 1.090470 -0.058029 1.779016
v 1.090470 0.058029 1.779016
v 1.159530 -0.058029 -1.779016
v 1.159530 -0.058029 1.779016
v 1.159530 0.058029 1.779016
v 1.159530 0.058029 -1.779016
v 1.540470 -0.058029 -1.779016
v 1.540470 0.058029 -1.779016
v 1.540470 -0.058029 1.779016
v 1.540470 0.058029 1.779016
v 1.609530 -0.058029 -1.779016
v 1.609530 -0.058029 1.779016
v 1.609530 0.058029 1.779016
v 1.609530 0.058029 -1.779016
v 1.990470 -0.058029 -1.779016
v 1.990470 0.058029 -1.779016
v 1.990470 -0.058029 1.779016
v 1.990470 0.058029 1.779016
v -1.549875 -0.176029 0.190470
v 2.008156 -0.176029 0.190470
v 2.008156 -0.059971 0.190470
v -1.549875 -0.059971 0.190470
v -1.549875 -0.176029 -0.190470
v -1.549875 -0.059971 -0.190470
v 2.008156 -0.176029 -0.190470
v 2.008156 -0.059971 -0.190470
v -1.549875 -0.176029 -0.259530
v 2.008156 -0.176029 -0.259530
v 2.008156 -0.059971 -0.259530
v -1.549875 -0.059971 -0.259530
v -1.549875 -0.176029 -0.640470
v -1.549875 -0.059971 -0.640470
v 2.008156 -0.176029 -0.640470
v 2.008156 -0.059971 -0.640470
v -1.549875 -0.176029 -0.709530
v 2.008156 -0.176029 -0.709530
v 2.008156 -0.059971 -0.709530
v -1.549875 -0.059971 -0.709530
v -1.549875 -0.176029 -1.090470
v -1.549875 -0.059971 -1.090470
v 2.008156 -0.176029 -1.090470
v 2.008156 -0.059971 -1.090470
v -1.549875 -0.176029 -1.159530
v 2.008156 -0.176029 -1.159530
v 2.008156 -0.059971 -1.159530
v -1.549875 -0.059971 -1.159530
v -1.549875 -0.176029 -1.540470
v -1.549875 -0.059971 -1.540470
v 2.008156 -0.176029 -1.540470
v 2.008156 -0.059971 -1.540470
v -1.549875 -0.176029 -1.159530
v 2.008156 -0.176029 -1.159530
v 2.008156 -0.059971 -1.159530
v -1.549875 -0.059971 -1.159530
v -1.549875 -0.176029 -1.540470
v -1.549875 -0.059971 -1.540470
v 2.008156 -0.176029 -1.540470
v 2.008156 -0.059971 -1.540470
v -1.549875 -0.176029 -1.159530
v 2.008156 -0.176029 -1.159530
v 2.008156 -0.059971 -1.159530
v -1.549875 -0.059971 -1.159530
v -1.549875 -0.176029 -1.540470
v -1.549875 -0.059971 -1.540470
v 2.008156 -0.176029 -1.540470
v 2.008156 -0.059971 -1.540470
v -1.549875 -0.176029 0.640470
v 2.008156 -0.176029 0.640470
v 2.008156 -0.059971 0.640470
v -1.549875 -0.059971 0.640470
v -1.549875 -0.176029 0.259530
v -1.549875 -0.059971 0.259530
v 2.008156 -0.176029 0.259530
v 2.008156 -0.059971 0.259530
v -1.549875 -0.176029 1.090470
v 2.008156 -0.176029 1.090470
v 2.008156 -0.059971 1.090470
v -1.549875 -0.059971 1.090470
v -1.549875 -0.176029 0.709530
v -1.549875 -0.059971 0.709530
v 2.008156 -0.176029 0.709530
v 2.008156 -0.059971 0.709530
v -1.549875 -0.176029 1.540470
v 2.008156 -0.176029 1.540470
v 2.008156 -0.059971 1.540470
v -1.549875 -0.059971 1.540470
v -1.549875 -0.176029 1.159530
v -1.549875 -0.059971 1.159530
v 2.008156 -0.176029 1.159529
v 2.008156 -0.059971 1.159529
v -1.445378 -0.035425 -1.250669
v -1.445378 -1.814440 -1.250669
v -1.271291 -1.814440 -1.250669
v -1.271291 -0.035425 -1.250669
v -1.445378 -0.035425 -1.441139
v -1.271291 -0.035425 -1.441139
v -1.445378 -1.814440 -1.441140
v -1.271291 -1.814440 -1.441140
v 1.717906 -0.035425 -1.250669
v 1.717906 -1.814440 -1.250669
v 1.891993 -1.814440 -1.250669
v 1.891994 -0.035425 -1.250669
v 1.717906 -0.035425 -1.441139
v 1.891994 -0.035425 -1.441139
v 1.717906 -1.814440 -1.441140
v 1.891993 -1.814440 -1.441140
v 1.717906 -0.035425 -1.250669
v 1.717906 -1.814440 -1.250669
v 1.891993 -1.814440 -1.250669
v 1.891994 -0.035425 -1.250669
v 1.717906 -0.035425 -1.441139
v 1.891994 -0.035425 -1.441139
v 1.717906 -1.814440 -1.441140
v 1.891993 -1.814440 -1.441140
v 1.717906 -0.035425 1.445235
v 1.717906 -1.814440 1.445235
v 1.891993 -1.814440 1.445235
v 1.891994 -0.035425 1.445235
v 1.717906 -0.035425 1.254765
v 1.891994 -0.035425 1.254765
v 1.717906 -1.814440 1.254765
v 1.891993 -1.814440 1.254765
v -1.445378 -0.035425 1.445235
v -1.445378 -1.814440 1.445235
v -1.271291 -1.814440 1.445235
v -1.271291 -0.035425 1.445235
v -1.445378 -0.035425 1.254765
v -1.271291 -0.035425 1.254765
v -1.445378 -1.814440 1.254765
v -1.271291 -1.814440 1.254765
vt 0.375000 0.000000
vt 0.375000 0.250000
vt 0.625000 0.250000
vt 0.625000 0.000000
vt 0.375000 0.500000
vt 0.625000 0.500000
vt 0.375000 0.750000
vt 0.625000 0.750000
vt 0.375000 1.000000
vt 0.625000 1.000000
vt 0.125000 0.500000
vt 0.125000 0.750000
vt 0.875000 0.750000
vt 0.875000 0.500000
vt 0.375000 0.000000
vt 0.375000 0.250000
vt 0.625000 0.250000
vt 0.625000 0.000000
vt 0.375000 0.500000
vt 0.625000 0.500000
vt 0.375000 0.750000
vt 0.625000 0.750000
vt 0.375000 1.000000
vt 0.625000 1.000000
vt 0.125000 0.500000
vt 0.125000 0.750000
vt 0.875000 0.750000
vt 0.875000 0.500000
vt 0.375000 0.000000
vt 0.375000 0.250000
vt 0.625000 0.250000
vt 0.625000 0.000000
vt 0.375000 0.500000
vt 0.625000 0.500000
vt 0.375000 0.750000
vt 0.625000 0.750000
vt 0.375000 1.000000
vt 0.625000 1.000000
vt 0.125000 0.500000
vt 0.125000 0.750000
vt 0.875000 0.750000
vt 0.875000 0.500000
vt 0.375000 0.000000
vt 0.375000 0.250000
vt 0.625000 0.250000
vt 0.625000 0.000000
vt 0.375000 0.500000
vt 0.625000 0.500000
vt 0.375000 0.750000
vt 0.625000 0.750000
vt 0.375000 1.000000
vt 0.625000 1.000000
vt 0.125000 0.500000
vt 0.125000 0.750000
vt 0.875000 0.750000
vt 0.875000 0.500000
vt 0.375000 0.000000
vt 0.375000 0.250000
vt 0.625000 0.250000
vt 0.625000 0.000000
vt 0.375000 0.500000
vt 0.625000 0.500000
vt 0.375000 0.750000
vt 0.625000 0.750000
vt 0.375000 1.000000
vt 0.625000 1.000000
vt 0.125000 0.500000
vt 0.125000 0.750000
vt 0.875000 0.750000
vt 0.875000 0.500000
vt 0.375000 0.000000
vt 0.375000 0.250000
vt 0.625000 0.250000
vt 0.625000 0.000000
vt 0.375000 0.500000
vt 0.625000 0.500000
vt 0.375000 0.750000
vt 0.625000 0.750000
vt 0.375000 1.000000
vt 0.625000 1.000000
vt 0.125000 0.500000
vt 0.125000 0.750000
vt 0.875000 0.750000
vt 0.875000 0.500000
vt 0.375000 0.000000
vt 0.375000 0.250000
vt 0.625000 0.250000
vt 0.625000 0.000000
vt 0.375000 0.500000
vt 0.625000 0.500000
vt 0.375000 0.750000
vt 0.625000 0.750000
vt 0.375000 1.000000
vt 0.625000 1.000000
vt 0.125000 0.500000
vt 0.125000 0.750000
vt 0.875000 0.750000
vt 0.875000 0.500000
vt 0.375000 0.000000
vt 0.375000 0.250000
vt 0.625000 0.250000
vt 0.625000 0.000000
vt 0.375000 0.500000
vt 0.625000 0.500000
vt 0.375000 0.750000
vt 0.625000 0.750000
vt 0.375000 1.000000
vt 0.625000 1.000000
vt 0.125000 0.500000
vt 0.125000 0.750000
vt 0.875000 0.750000
vt 0.875000 0.500000
vt 0.375000 0.000000
vt 0.625000 0.000000
vt 0.625000 0.250000
vt 0.375000 0.250000
vt 0.625000 0.500000
vt 0.375000 0.500000
vt 0.625000 0.750000
vt 0.375000 0.750000
vt 0.625000 1.000000
vt 0.375000 1.000000
vt 0.125000 0.500000
vt 0.125000 0.750000
vt 0.875000 0.500000
vt 0.875000 0.750000
vt 0.375000 0.000000
vt 0.375000 0.250000
vt 0.625000 0.250000
vt 0.625000 0.000000
vt 0.375000 0.500000
vt 0.625000 0.500000
vt 0.375000 0.750000
vt 0.625000 0.750000
vt 0.375000 1.000000
vt 0.625000 1.000000
vt 0.125000 0.500000
vt 0.125000 0.750000
vt 0.875000 0.750000
vt 0.875000 0.500000
vt 0.375000 0.000000
vt 0.375000 0.250000
vt 0.625000 0.250000
vt 0.625000 0.000000
vt 0.375000 0.500000
vt 0.625000 0.500000
vt 0.375000 0.750000
vt 0.625000 0.750000
vt 0.375000 1.000000
vt 0.625000 1.000000
vt 0.125000 0.500000
vt 0.125000 0.750000
vt 0.875000 0.750000
vt 0.875000 0.500000
vt 0.375000 0.000000
vt 0.375000 0.250000
vt 0.625000 0.250000
vt 0.625000 0.000000
vt 0.375000 0.500000
vt 0.625000 0.500000
vt 0.375000 0.750000
vt 0.625000 0.750000
vt 0.375000 1.000000
vt 0.625000 1.000000
vt 0.125000 0.500000
vt 0.125000 0.750000
vt 0.875000 0.750000
vt 0.875000 0.500000
vt 0.375000 0.000000
vt 0.375000 0.250000
vt 0.625000 0.250000
vt 0.625000 0.000000
vt 0.375000 0.500000
vt 0.625000 0.500000
vt 0.375000 0.750000
vt 0.625000 0.750000
vt 0.375000 1.000000
vt 0.625000 1.000000
vt 0.125000 0.500000
vt 0.125000 0.750000
vt 0.875000 0.750000
vt 0.875000 0.500000
vt 0.375000 0.000000
vt 0.625000 0.000000
vt 0.625000 0.250000
vt 0.375000 0.250000
vt 0.625000 0.500000
vt 0.375000 0.500000
vt 0.625000 0.750000
vt 0.375000 0.750000
vt 0.625000 1.000000
vt 0.375000 1.000000
vt 0.125000 0.500000
vt 0.125000 0.750000
vt 0.875000 0.500000
vt 0.875000 0.750000
vt 0.375000 0.000000
vt 0.625000 0.000000
vt 0.625000 0.250000
vt 0.375000 0.250000
vt 0.625000 0.500000
vt 0.375000 0.500000
vt 0.625000 0.750000
vt 0.375000 0.750000
vt 0.625000 1.000000
vt 0.375000 1.000000
vt 0.125000 0.500000
vt 0.125000 0.750000
vt 0.875000 0.500000
vt 0.875000 0.750000
vt 0.375000 0.000000
vt 0.625000 0.000000
vt 0.625000 0.250000
vt 0.375000 0.250000
vt 0.625000 0.500000
vt 0.375000 0.500000
vt 0.625000 0.750000
vt 0.375000 0.750000
vt 0.625000 1.000000
vt 0.375000 1.000000
vt 0.125000 0.500000
vt 0.125000 0.750000
vt 0.875000 0.500000
vt 0.875000 0.750000
vt 0.375000 0.000000
vt 0.625000 0.000000
vt 0.625000 0.250000
vt 0.375000 0.250000
vt 0.625000 0.500000
vt 0.375000 0.500000
vt 0.625000 0.750000
vt 0.375000 0.750000
vt 0.625000 1.000000
vt 0.375000 1.000000
vt 0.125000 0.500000
vt 0.125000 0.750000
vt 0.875000 0.500000
vt 0.875000 0.750000
vt 0.375000 0.000000
vt 0.625000 0.000000
vt 0.625000 0.250000
vt 0.375000 0.250000
vt 0.625000 0.500000
vt 0.375000 0.500000
vt 0.625000 0.750000
vt 0.375000 0.750000
vt 0.625000 1.000000
vt 0.375000 1.000000
vt 0.125000 0.500000
vt 0.125000 0.750000
vt 0.875000 0.500000
vt 0.875000 0.750000
vt 0.375000 0.000000
vt 0.625000 0.000000
vt 0.625000 0.250000
vt 0.375000 0.250000
vt 0.625000 0.500000
vt 0.375000 0.500000
vt 0.625000 0.750000
vt 0.375000 0.750000
vt 0.625000 1.000000
vt 0.375000 1.000000
vt 0.125000 0.500000
vt 0.125000 0.750000
vt 0.875000 0.500000
vt 0.875000 0.750000
vt 0.375000 0.000000
vt 0.625000 0.000000
vt 0.625000 0.250000
vt 0.375000 0.250000
vt 0.625000 0.500000
vt 0.375000 0.500000
vt 0.625000 0.750000
vt 0.375000 0.750000
vt 0.625000 1.000000
vt 0.375000 1.000000
vt 0.125000 0.500000
vt 0.125000 0.750000
vt 0.875000 0.500000
vt 0.875000 0.750000
vt 0.375000 0.000000
vt 0.625000 0.000000
vt 0.625000 0.250000
vt 0.375000 0.250000
vt 0.625000 0.500000
vt 0.375000 0.500000
vt 0.625000 0.750000
vt 0.375000 0.750000
vt 0.625000 1.000000
vt 0.375000 1.000000
vt 0.125000 0.500000
vt 0.125000 0.750000
vt 0.875000 0.500000
vt 0.875000 0.750000
vt 0.375000 0.000000
vt 0.375000 0.250000
vt 0.625000 0.250000
vt 0.625000 0.000000
vt 0.375000 0.500000
vt 0.625000 0.500000
vt 0.375000 0.750000
vt 0.625000 0.750000
vt 0.375000 1.000000
vt 0.625000 1.000000
vt 0.125000 0.500000
vt 0.125000 0.750000
vt 0.875000 0.750000
vt 0.875000 0.500000
vn 1.0000 0.0000 0.0000
vn 0.0000 0.0000 1.0000
vn -1.0000 0.0000 0.0000
vn 0.0000 0.0000 -1.0000
vn 0.0000 1.0000 0.0000
vn 0.0000 -1.0000 0.0000
usemtl Material.003
s off
f 1/1/1 3/2/1 4/3/1 2/4/1
f 3/2/2 7/5/2 8/6/2 4/3/2
f 7/5/3 5/7/3 6/8/3 8/6/3
f 5/7/4 1/9/4 2/10/4 6/8/4
f 3/11/5 1/12/5 5/7/5 7/5/5
f 8/6/6 6/8/6 2/13/6 4/14/6
f 10/15/1 9/16/1 12/17/1 11/18/1
f 9/16/2 13/19/2 14/20/2 12/17/2
f 13/19/3 15/21/3 16/22/3 14/20/3
f 15/21/4 10/23/4 11/24/4 16/22/4
f 9/25/5 10/26/5 15/21/5 13/19/5
f 14/20/6 16/22/6 11/27/6 12/28/6
f 18/29/1 17/30/1 20/31/1 19/32/1
f 17/30/2 21/33/2 22/34/2 20/31/2
f 21/33/3 23/35/3 24/36/3 22/34/3
f 23/35/4 18/37/4 19/38/4 24/36/4
f 17/39/5 18/40/5 23/35/5 21/33/5
f 22/34/6 24/36/6 19/41/6 20/42/6
f 26/43/1 25/44/1 28/45/1 27/46/1
f 25/44/2 29/47/2 30/48/2 28/45/2
f 29/47/3 31/49/3 32/50/3 30/48/3
f 31/49/4 26/51/4 27/52/4 32/50/4
f 25/53/5 26/54/5 31/49/5 29/47/5
f 30/48/6 32/50/6 27/55/6 28/56/6
f 34/57/1 33/58/1 36/59/1 35/60/1
f 33/58/2 37/61/2 38/62/2 36/59/2
f 37/61/3 39/63/3 40/64/3 38/62/3
f 39/63/4 34/65/4 35/66/4 40/64/4
f 33/67/5 34/68/5 39/63/5 37/61/5
f 38/62/6 40/64/6 35/69/6 36/70/6
f 42/71/1 41/72/1 44/73/1 43/74/1
f 41/72/2 45/75/2 46/76/2 44/73/2
f 45/75/3 47/77/3 48/78/3 46/76/3
f 47/77/4 42/79/4 43/80/4 48/78/4
f 41/81/5 42/82/5 47/77/5 45/75/5
f 46/76/6 48/78/6 43/83/6 44/84/6
f 50/85/1 49/86/1 52/87/1 51/88/1
f 49/86/2 53/89/2 54/90/2 52/87/2
f 53/89/3 55/91/3 56/92/3 54/90/3
f 55/91/4 50/93/4 51/94/4 56/92/4
f 49/95/5 50/96/5 55/91/5 53/89/5
f 54/90/6 56/92/6 51/97/6 52/98/6
f 58/99/1 57/100/1 60/101/1 59/102/1
f 57/100/2 61/103/2 62/104/2 60/101/2
f 61/103/3 63/105/3 64/106/3 62/104/3
f 63/105/4 58/107/4 59/108/4 64/106/4
f 57/109/5 58/110/5 63/105/5 61/103/5
f 62/104/6 64/106/6 59/111/6 60/112/6
f 66/113/2 67/114/2 68/115/2 65/116/2
f 65/116/3 68/115/3 70/117/3 69/118/3
f 69/118/4 70/117/4 72/119/4 71/120/4
f 71/120/1 72/119/1 67/121/1 66/122/1
f 65/123/6 69/118/6 71/120/6 66/124/6
f 70/117/5 68/125/5 67/126/5 72/119/5
f 74/127/4 73/128/4 76/129/4 75/130/4
f 73/128/1 77/131/1 78/132/1 76/129/1
f 77/131/2 79/133/2 80/134/2 78/132/2
f 79/133/3 74/135/3 75/136/3 80/134/3
f 73/137/5 74/138/5 79/133/5 77/131/5
f 78/132/6 80/134/6 75/139/6 76/140/6
f 82/141/4 81/142/4 84/143/4 83/144/4
f 81/142/1 85/145/1 86/146/1 84/143/1
f 85/145/2 87/147/2 88/148/2 86/146/2
f 87/147/3 82/149/3 83/150/3 88/148/3
f 81/151/5 82/152/5 87/147/5 85/145/5
f 86/146/6 88/148/6 83/153/6 84/154/6
f 90/155/4 89/156/4 92/157/4 91/158/4
f 89/156/1 93/159/1 94/160/1 92/157/1
f 93/159/2 95/161/2 96/162/2 94/160/2
f 95/161/3 90/163/3 91/164/3 96/162/3
f 89/165/5 90/166/5 95/161/5 93/159/5
f 94/160/6 96/162/6 91/167/6 92/168/6
f 98/169/4 97/170/4 100/171/4 99/172/4
f 97/170/1 101/173/1 102/174/1 100/171/1
f 101/173/2 103/175/2 104/176/2 102/174/2
f 103/175/3 98/177/3 99/178/3 104/176/3
f 97/179/5 98/180/5 103/175/5 101/173/5
f 102/174/6 104/176/6 99/181/6 100/182/6
f 106/183/2 107/184/2 108/185/2 105/186/2
f 105/186/3 108/185/3 110/187/3 109/188/3
f 109/188/4 110/187/4 112/189/4 111/190/4
f 111/190/1 112/189/1 107/191/1 106/192/1
f 105/193/6 109/188/6 111/190/6 106/194/6
f 110/187/5 108/195/5 107/196/5 112/189/5
f 114/197/2 115/198/2 116/199/2 113/200/2
f 113/200/3 116/199/3 118/201/3 117/202/3
f 117/202/4 118/201/4 120/203/4 119/204/4
f 119/204/1 120/203/1 115/205/1 114/206/1
f 113/207/6 117/202/6 119/204/6 114/208/6
f 118/201/5 116/209/5 115/210/5 120/203/5
f 122/211/2 123/212/2 124/213/2 121/214/2
f 121/214/3 124/213/3 126/215/3 125/216/3
f 125/216/4 126/215/4 128/217/4 127/218/4
f 127/218/1 128/217/1 123/219/1 122/220/1
f 121/221/6 125/216/6 127/218/6 122/222/6
f 126/215/5 124/223/5 123/224/5 128/217/5
f 130/225/2 131/226/2 132/227/2 129/228/2
f 129/228/3 132/227/3 134/229/3 133/230/3
f 133/230/4 134/229/4 136/231/4 135/232/4
f 135/232/1 136/231/1 131/233/1 130/234/1
f 129/235/6 133/230/6 135/232/6 130/236/6
f 134/229/5 132/237/5 131/238/5 136/231/5
f 138/239/2 139/240/2 140/241/2 137/242/2
f 137/242/5 140/241/5 142/243/5 141/244/5
f 141/244/4 142/243/4 144/245/4 143/246/4
f 143/246/6 144/245/6 139/247/6 138/248/6
f 137/249/3 141/244/3 143/246/3 138/250/3
f 142/243/1 140/251/1 139/252/1 144/245/1
f 146/253/2 147/254/2 148/255/2 145/256/2
f 145/256/5 148/255/5 150/257/5 149/258/5
f 149/258/4 150/257/4 152/259/4 151/260/4
f 151/260/6 152/259/6 147/261/6 146/262/6
f 145/263/3 149/258/3 151/260/3 146/264/3
f 150/257/1 148/265/1 147/266/1 152/259/1
f 154/267/2 155/268/2 156/269/2 153/270/2
f 153/270/5 156/269/5 158/271/5 157/272/5
f 157/272/4 158/271/4 160/273/4 159/274/4
f 159/274/6 160/273/6 155/275/6 154/276/6
f 153/277/3 157/272/3 159/274/3 154/278/3
f 158/271/1 156/279/1 155/280/1 160/273/1
f 162/281/2 163/282/2 164/283/2 161/284/2
f 161/284/5 164/283/5 166/285/5 165/286/5
f 165/286/4 166/285/4 168/287/4 167/288/4
f 167/288/6 168/287/6 163/289/6 162/290/6
f 161/291/3 165/286/3 167/288/3 162/292/3
f 166/285/1 164/293/1 163/294/1 168/287/1
f 170/295/4 169/296/4 172/297/4 171/298/4
f 169/296/6 173/299/6 174/300/6 172/297/6
f 173/299/2 175/301/2 176/302/2 174/300/2
f 175/301/5 170/303/5 171/304/5 176/302/5
f 169/305/1 170/306/1 175/301/1 173/299/1
f 174/300/3 176/302/3 171/307/3 172/308/3
